<?xml version="1.0" encoding="utf-8"?>
<!-- Generator: Adobe Illustrator 24.3.0, SVG Export Plug-In . SVG Version: 6.00 Build 0)  -->
<svg version="1.1" id="katman_1" xmlns="http://www.w3.org/2000/svg" xmlns:xlink="http://www.w3.org/1999/xlink" x="0px" y="0px"
	 viewBox="0 0 288.81 252.85" style="enable-background:new 0 0 288.81 252.85;" xml:space="preserve">
<style type="text/css">
	.st0{fill-rule:evenodd;clip-rule:evenodd;fill:#00A0DB;}
	.st1{fill-rule:evenodd;clip-rule:evenodd;fill:#AEC510;}
	.st2{fill-rule:evenodd;clip-rule:evenodd;fill:#FAB30E;}
	.st3{fill:#00A0DB;}
	.st4{font-family:'Gabriola';}
	.st5{font-size:58.3173px;}
	.st6{fill:#FEC700;}
</style>
<path class="st0" d="M50.48,152.71c-7.24,5.18-12.12,11.02-13.3,17.37l-0.01-0.32c-1.18,12.43,2.96,25.85,8.02,34.36l8.13-11.28
	C48.81,179.12,46.82,163.99,50.48,152.71z"/>
<path class="st1" d="M55.93,149.17c-1.88,9.55-1.81,20.05,0.42,30.52c0.49,2.31,1.02,4.56,1.58,6.74l11.15-15.47
	c-1.33-9.75-1.46-19.45-0.35-28.17C64.11,144.77,59.8,146.9,55.93,149.17z"/>
<path class="st2" d="M84.91,136.94c-3.23,1-6.4,2.07-9.47,3.21c-0.27,3.16-0.42,6.34-0.46,9.51c-0.05,4.14,0.12,8.3,0.49,12.46
	l12.89-17.89c0.06-2.81,0.22-5.65,0.48-8.48C87.52,136.14,86.2,136.54,84.91,136.94z"/>
<path class="st2" d="M141.87,73.54c-2.61-0.07-5.37-0.08-8.18,0c6.35-5.47,9.48-14.23,7.34-22.92
	c-3.03-12.34-15.48-19.88-27.82-16.85c-12.34,3.03-19.88,15.48-16.85,27.82c1.67,6.82,6.24,12.18,12.06,15.09
	c-5.39,1.39-9.99,3.28-13.02,5.78c-3.49,2.87-9.95,9.7-13.22,17.55c10.27-11.39,38.07-15.89,62.75-15.88
	c-1.02-1.93-1.82-4.02-2.37-6.24C142.22,76.43,141.99,74.98,141.87,73.54z"/>
<path class="st1" d="M190.78,89.58c-2.27-0.16-4.64-0.31-7.07-0.45c6.62-5.44,9.91-14.38,7.73-23.26
	c-3.03-12.34-15.48-19.88-27.82-16.85c-12.34,3.03-19.88,15.48-16.85,27.82c1.13,4.62,3.59,8.57,6.87,11.54
	c-33.16,0.44-69.74,5.83-87.47,26.83c-3.77,4.47-5.62,7.36-7.82,13.11c15.09-21.25,62.95-25.45,88.56-26.57
	c4.13-0.18,27.8-0.16,45.7-0.07c-0.44-1.13-0.82-2.3-1.12-3.51C190.79,95.28,190.57,92.39,190.78,89.58z"/>
<path class="st0" d="M232.16,109.81c6.94-5.4,10.45-14.55,8.22-23.64c-3.03-12.34-15.48-19.88-27.82-16.85
	c-12.34,3.03-19.88,15.48-16.85,27.82c0.93,3.78,2.74,7.11,5.17,9.83c-19.16-0.93-40.88-0.77-61.01,0.73
	c-22.53,1.68-42.81,5.81-55.93,10.15c-17.41,5.76-33,14.43-41.61,24.77c-5.4,6.48-8.84,14.12-8.41,23.02
	c2.63-14.08,23.37-25.61,47.73-33.15c50.16-15.51,133.94-12.19,184.2-6.12l-19.16-13.6C242.8,111.64,237.87,110.65,232.16,109.81z"
	/>
<text transform="matrix(1 0 0 1 93.1182 169.1031)" class="st3 st4 st5">harmonie</text>
<text transform="matrix(1 0 0 1 93.1182 214.5621)" class="st6 st4 st5">culturelle</text>
</svg>
